<svg xmlns="http://www.w3.org/2000/svg" width="61" height="61" viewBox="0 0 61 61" fill="none">
  <path d="M60.5 30.5C60.5 47.0726 47.0726 60.5 30.5 60.5C13.9274 60.5 0.5 47.0726 0.5 30.5C0.5 13.9274 13.9274 0.5 30.5 0.5C47.0726 0.5 60.5 13.9274 60.5 30.5ZM27.0282 46.3831L49.2863 24.125C50.0363 23.375 50.0363 22.1411 49.2863 21.3911L46.5524 18.6573C45.8024 17.9073 44.5686 17.9073 43.8186 18.6573L25.6613 36.8024L17.1815 28.3226C16.4315 27.5726 15.1976 27.5726 14.4476 28.3226L11.7137 31.0565C10.9637 31.8065 10.9637 33.0403 11.7137 33.7903L24.2944 46.371C25.0444 47.1452 26.2782 47.1452 27.0282 46.3831Z" fill="#2C2A29"/>
</svg>