<svg xmlns="http://www.w3.org/2000/svg" width="32" height="40" viewBox="0 0 32 40" fill="none">
  <path d="M10.4565 23.4596C10.0659 23.069 9.43277 23.069 9.04224 23.4596C8.65172 23.8501 8.65172 24.4832 9.04224 24.8738L10.4565 23.4596ZM13.916 28.3333L13.2089 29.0404C13.5994 29.431 14.2326 29.431 14.6231 29.0404L13.916 28.3333ZM22.9565 20.7071C23.347 20.3166 23.347 19.6834 22.9565 19.2929C22.5659 18.9024 21.9328 18.9024 21.5422 19.2929L22.9565 20.7071ZM29.5827 9.58333V34.5833H31.5827V9.58333H29.5827ZM26.416 37.75H5.58268V39.75H26.416V37.75ZM2.41602 34.5833V9.58333H0.416016V34.5833H2.41602ZM5.58268 6.41667H9.74935V4.41667H5.58268V6.41667ZM22.2493 6.41667H26.416V4.41667H22.2493V6.41667ZM5.58268 37.75C3.83378 37.75 2.41602 36.3322 2.41602 34.5833H0.416016C0.416016 37.4368 2.72921 39.75 5.58268 39.75V37.75ZM29.5827 34.5833C29.5827 36.3322 28.1649 37.75 26.416 37.75V39.75C29.2695 39.75 31.5827 37.4368 31.5827 34.5833H29.5827ZM31.5827 9.58333C31.5827 6.72986 29.2695 4.41667 26.416 4.41667V6.41667C28.1649 6.41667 29.5827 7.83443 29.5827 9.58333H31.5827ZM2.41602 9.58333C2.41602 7.83443 3.83378 6.41667 5.58268 6.41667V4.41667C2.72921 4.41667 0.416016 6.72986 0.416016 9.58333H2.41602ZM9.04224 24.8738L13.2089 29.0404L14.6231 27.6262L10.4565 23.4596L9.04224 24.8738ZM14.6231 29.0404L22.9565 20.7071L21.5422 19.2929L13.2089 27.6262L14.6231 29.0404ZM13.916 2.25H18.0827V0.25H13.916V2.25ZM18.0827 8.58333H13.916V10.5833H18.0827V8.58333ZM13.916 8.58333C12.1671 8.58333 10.7493 7.16557 10.7493 5.41667H8.74935C8.74935 8.27014 11.0625 10.5833 13.916 10.5833V8.58333ZM21.2493 5.41667C21.2493 7.16557 19.8316 8.58333 18.0827 8.58333V10.5833C20.9362 10.5833 23.2493 8.27014 23.2493 5.41667H21.2493ZM18.0827 2.25C19.8316 2.25 21.2493 3.66777 21.2493 5.41667H23.2493C23.2493 2.5632 20.9362 0.25 18.0827 0.25V2.25ZM13.916 0.25C11.0625 0.25 8.74935 2.5632 8.74935 5.41667H10.7493C10.7493 3.66777 12.1671 2.25 13.916 2.25V0.25Z" fill="#2C2A29"/>
</svg>