<svg width="50" height="50" viewBox="0 0 50 50" fill="none" xmlns="http://www.w3.org/2000/svg">
<path d="M35.4167 6.25H14.5833C9.98125 6.25 6.25 9.98125 6.25 14.5833V35.4167C6.25 40.0187 9.98125 43.75 14.5833 43.75H26.2938V29.2479H21.4125V23.5708H26.2938V19.3937C26.2938 14.5521 29.2542 11.9125 33.575 11.9125C35.0312 11.9083 36.4854 11.9833 37.9333 12.1312V17.1938H34.9583C32.6042 17.1938 32.1458 18.3062 32.1458 19.9479V23.5625H37.7708L37.0396 29.2396H32.1125V43.75H35.4167C40.0187 43.75 43.75 40.0187 43.75 35.4167V14.5833C43.75 9.98125 40.0187 6.25 35.4167 6.25Z" fill="#9980FF"/>
</svg>
