<svg xmlns="http://www.w3.org/2000/svg" width="24" height="24" viewBox="0 0 24 24" fill="none">
  <path d="M21.2831 8.27462L15.3323 7.40977L12.6722 2.01681C12.5995 1.86915 12.48 1.74962 12.3323 1.67696C11.962 1.49415 11.512 1.64649 11.3268 2.01681L8.66668 7.40977L2.7159 8.27462C2.55184 8.29806 2.40184 8.3754 2.28699 8.49259C2.14815 8.63529 2.07165 8.82728 2.07428 9.02636C2.07692 9.22544 2.15849 9.41533 2.30106 9.55431L6.60653 13.752L5.58934 19.6793C5.56549 19.8172 5.58074 19.959 5.63338 20.0886C5.68602 20.2183 5.77394 20.3306 5.88716 20.4128C6.00038 20.4951 6.13437 20.5439 6.27395 20.5539C6.41352 20.5638 6.5531 20.5345 6.67684 20.4692L11.9995 17.6707L17.3222 20.4692C17.4675 20.5465 17.6362 20.5723 17.7979 20.5441C18.2057 20.4738 18.48 20.0871 18.4097 19.6793L17.3925 13.752L21.6979 9.55431C21.8151 9.43946 21.8925 9.28946 21.9159 9.1254C21.9792 8.71524 21.6932 8.33556 21.2831 8.27462ZM15.5807 13.1613L16.4268 18.0902L11.9995 15.7652L7.57215 18.0926L8.41824 13.1637L4.83699 9.67149L9.78699 8.95196L11.9995 4.46837L14.212 8.95196L19.162 9.67149L15.5807 13.1613Z" fill="#11243E"/>
</svg>