<svg xmlns="http://www.w3.org/2000/svg" width="24" height="25" viewBox="0 0 24 25" fill="none">
  <path d="M9.375 7.75827H11.107V15.6872C11.107 15.7903 11.1914 15.8747 11.2945 15.8747H12.7008C12.8039 15.8747 12.8883 15.7903 12.8883 15.6872V7.75827H14.625C14.782 7.75827 14.8687 7.5778 14.7727 7.45593L12.1477 4.13249C12.1301 4.11008 12.1077 4.09195 12.0821 4.07949C12.0565 4.06702 12.0285 4.06055 12 4.06055C11.9715 4.06055 11.9435 4.06702 11.9179 4.07949C11.8923 4.09195 11.8699 4.11008 11.8523 4.13249L9.22734 7.45358C9.13125 7.5778 9.21797 7.75827 9.375 7.75827ZM20.5781 14.9841H19.1719C19.0688 14.9841 18.9844 15.0684 18.9844 15.1716V18.7809H5.01562V15.1716C5.01562 15.0684 4.93125 14.9841 4.82812 14.9841H3.42188C3.31875 14.9841 3.23438 15.0684 3.23438 15.1716V19.8122C3.23438 20.227 3.56953 20.5622 3.98438 20.5622H20.0156C20.4305 20.5622 20.7656 20.227 20.7656 19.8122V15.1716C20.7656 15.0684 20.6812 14.9841 20.5781 14.9841Z" fill="#F6F6F6"/>
</svg>